
<!-- Generator: visioncortex VTracer 0.6.4 -->
<svg version="1.1" xmlns="http://www.w3.org/2000/svg" viewBox="0 0 1024 1024" preserveAspectRatio="xMidYMid meet">
<path d="M0 0 C337.92 0 675.84 0 1024 0 C1024 337.92 1024 675.84 1024 1024 C686.08 1024 348.16 1024 0 1024 C0 686.08 0 348.16 0 0 Z " fill="#132038" transform="translate(0,0)"/>
<path d="M0 0 C1.812 1.125 1.812 1.125 3 3 C3.501 5.654 3.501 5.654 3 9 C1.048 11.796 -1.364 14.062 -3.824 16.41 C-4.872 17.445 -4.872 17.445 -5.941 18.501 C-8.176 20.703 -10.431 22.883 -12.688 25.062 C-14.188 26.533 -15.688 28.005 -17.186 29.479 C-19.947 32.191 -22.716 34.895 -25.495 37.59 C-29.911 41.878 -34.243 46.191 -38.312 50.812 C-39.01 51.603 -39.707 52.393 -40.426 53.207 C-40.945 53.799 -41.465 54.39 -42 55 C-41.01 54.67 -40.02 54.34 -39 54 C-26.799 51.343 -14.859 50.043 -2.367 49.934 C-1.169 49.913 0.03 49.893 1.264 49.872 C3.674 49.833 6.085 49.819 8.495 49.832 C15.176 49.71 18.877 49.225 23.588 44.36 C25 43 25 43 27.625 42.203 C33.377 42.317 36.53 43.399 40.723 47.395 C43.639 51.06 43.481 55.537 43 60 C41.222 64.116 38.89 66.766 35 69 C31.496 69.696 28.459 69.932 25 69 C23.942 68.024 22.912 67.019 21.9 65.996 C17.695 62.315 14.331 62.18 8.902 62.344 C8.039 62.346 7.175 62.349 6.286 62.352 C3.502 62.37 0.721 62.433 -2.062 62.5 C-3.975 62.528 -5.887 62.554 -7.799 62.58 C-13.202 62.665 -18.6 62.818 -24 63 C-25.295 63.042 -26.59 63.083 -27.924 63.126 C-30.914 63.245 -33.891 63.412 -36.875 63.625 C-37.66 63.669 -38.445 63.714 -39.254 63.76 C-52.957 65.087 -62.098 74.161 -71.24 83.513 C-73.203 85.516 -75.194 87.487 -77.189 89.457 C-78.455 90.73 -79.719 92.005 -80.98 93.281 C-81.572 93.866 -82.164 94.45 -82.773 95.053 C-85.304 97.672 -86.849 99.592 -88.126 103.045 C-87.795 110.805 -79.783 116.556 -74.573 121.742 C-73.061 123.251 -71.563 124.774 -70.064 126.297 C-69.097 127.266 -68.129 128.235 -67.16 129.203 C-66.29 130.076 -65.42 130.949 -64.524 131.849 C-59.17 136.412 -53.99 136.326 -47.253 136.411 C-46.277 136.43 -45.301 136.45 -44.295 136.471 C-41.076 136.534 -37.856 136.583 -34.637 136.633 C-32.402 136.674 -30.167 136.716 -27.932 136.759 C-22.055 136.869 -16.178 136.968 -10.3 137.064 C-4.301 137.165 1.698 137.276 7.697 137.387 C19.465 137.602 31.232 137.805 43 138 C43.276 137.386 43.552 136.773 43.836 136.141 C45.614 132.871 47.722 131.7 51 130 C54.865 129.312 58.11 129.616 61.75 131.188 C67.66 135.949 67.66 135.949 68.387 140.336 C68.575 144.665 68.246 147.48 66.375 151.438 C62.991 155.089 60.018 156.649 55.125 157.5 C50.543 156.767 46.307 154.307 43 151 C41.082 150.892 39.161 150.854 37.24 150.842 C36.003 150.832 34.766 150.822 33.491 150.811 C32.823 150.808 32.154 150.804 31.466 150.801 C29.354 150.789 27.243 150.769 25.131 150.748 C19.122 150.686 13.114 150.633 7.105 150.599 C-11.807 150.485 -30.241 149.709 -49 147 C-48.374 147.611 -47.747 148.222 -47.102 148.851 C-41.198 154.615 -35.311 160.395 -29.442 166.195 C-26.425 169.176 -23.401 172.15 -20.362 175.11 C-17.429 177.967 -14.513 180.841 -11.609 183.727 C-10.499 184.824 -9.382 185.915 -8.26 187 C-6.686 188.523 -5.136 190.066 -3.59 191.615 C-2.702 192.488 -1.813 193.361 -0.898 194.26 C1.517 197.747 1.521 199.843 1 204 C-1 206 -1 206 -4.188 206.5 C-9.108 205.855 -11.81 203.743 -15 200 C-15 199.34 -15 198.68 -15 198 C-15.66 198 -16.32 198 -17 198 C-17 197.34 -17 196.68 -17 196 C-17.862 195.644 -17.862 195.644 -18.742 195.281 C-21.49 193.722 -23.069 191.897 -25.125 189.5 C-29.864 184.097 -34.882 179.041 -40 174 C-42.451 171.553 -44.897 169.103 -47.344 166.652 C-49.893 164.107 -52.453 161.574 -55.018 159.045 C-59.828 154.301 -64.628 149.546 -69.422 144.786 C-72.314 141.915 -75.209 139.047 -78.113 136.188 C-80.935 133.41 -83.748 130.622 -86.553 127.826 C-87.619 126.768 -88.688 125.713 -89.761 124.662 C-91.264 123.188 -92.753 121.703 -94.241 120.213 C-95.514 118.954 -95.514 118.954 -96.813 117.668 C-100.107 113.65 -101.774 109.774 -102.438 104.562 C-101.474 96.714 -97.055 91.477 -91.512 86.156 C-90.89 85.543 -90.269 84.929 -89.629 84.297 C-87.658 82.355 -85.673 80.427 -83.688 78.5 C-81.715 76.57 -79.745 74.638 -77.779 72.703 C-76.56 71.505 -75.338 70.312 -74.112 69.123 C-71.227 66.304 -68.48 63.439 -65.86 60.371 C-60.669 54.361 -54.973 48.829 -49.355 43.223 C-48.137 42.004 -46.919 40.784 -45.701 39.565 C-43.163 37.026 -40.624 34.489 -38.083 31.953 C-34.824 28.699 -31.569 25.441 -28.315 22.181 C-25.807 19.67 -23.298 17.161 -20.787 14.653 C-19.585 13.452 -18.384 12.25 -17.183 11.047 C-15.513 9.374 -13.839 7.704 -12.165 6.035 C-11.669 5.537 -11.173 5.039 -10.661 4.526 C-7.067 0.954 -5.161 -0.503 0 0 Z " fill="#4379FC" transform="translate(239,406)"/>
<path d="M0 0 C2.149 1.544 2.149 1.544 4.348 3.605 C5.649 4.824 5.649 4.824 6.976 6.067 C12.583 11.478 18.113 16.966 23.615 22.484 C25.69 24.565 27.772 26.641 29.854 28.717 C31.198 30.062 32.543 31.408 33.887 32.754 C34.497 33.362 35.108 33.971 35.737 34.598 C38.756 37.634 41.657 40.721 44.448 43.968 C48.057 48.141 51.953 51.944 55.938 55.754 C57.424 57.199 58.91 58.645 60.395 60.092 C62.707 62.342 65.025 64.586 67.361 66.812 C69.634 68.983 71.881 71.178 74.125 73.379 C75.183 74.37 75.183 74.37 76.261 75.381 C79.372 78.473 80.897 80.022 81.367 84.476 C78.452 91.989 71.451 97.697 65.811 103.318 C65.131 104 64.45 104.683 63.749 105.386 C61.527 107.613 59.301 109.836 57.074 112.059 C55.519 113.614 53.965 115.17 52.41 116.725 C49.167 119.97 45.921 123.214 42.675 126.456 C38.507 130.618 34.344 134.784 30.182 138.952 C26.98 142.158 23.775 145.361 20.57 148.564 C19.033 150.1 17.497 151.637 15.961 153.175 C13.824 155.315 11.683 157.452 9.542 159.588 C8.905 160.226 8.269 160.864 7.613 161.522 C3.439 165.676 1.598 167.161 -4.25 167.312 C-9.321 167.266 -12.133 166.48 -16 163 C-18.845 159.763 -19.848 157.109 -20.438 152.812 C-19.281 142.737 -8.072 134.815 -1.164 127.969 C0.083 126.725 1.33 125.481 2.577 124.236 C5.837 120.984 9.104 117.737 12.371 114.491 C15.714 111.17 19.05 107.842 22.387 104.516 C28.919 98.005 35.457 91.5 42 85 C40.185 81.077 37.649 78.408 34.582 75.422 C34.047 74.892 33.511 74.361 32.959 73.815 C31.248 72.122 29.531 70.435 27.812 68.75 C25.566 66.54 23.322 64.327 21.082 62.109 C20.536 61.569 19.99 61.029 19.428 60.473 C16.695 57.751 14.058 55.004 11.562 52.059 C8.395 48.332 4.962 44.918 1.48 41.488 C0.891 40.907 0.302 40.326 -0.305 39.727 C-2.764 37.304 -5.226 34.884 -7.698 32.473 C-9.52 30.693 -11.333 28.904 -13.145 27.113 C-13.982 26.304 -13.982 26.304 -14.836 25.478 C-18.719 21.621 -20.601 18.565 -21.438 13.188 C-20.657 7.502 -17.829 3.403 -13.312 -0.062 C-8.461 -1.435 -4.832 -1.498 0 0 Z " fill="#3AA9FD" transform="translate(312,351)"/>
<path d="M0 0 C45.159 0 45.159 0 56.258 10.043 C65.486 19.935 67.334 28.852 67.148 42.047 C66.736 53.027 62.985 60.784 55.023 68.398 C38.983 81.094 20.204 77 0 77 C0 51.59 0 26.18 0 0 Z " fill="#F8FAFB" transform="translate(423,467)"/>
<path d="M0 0 C6.372 0.152 9.312 3.068 13.575 7.5 C14.293 8.213 15.011 8.927 15.751 9.662 C17.257 11.17 18.751 12.69 20.233 14.222 C22.502 16.56 24.815 18.845 27.137 21.129 C28.598 22.604 30.057 24.082 31.512 25.562 C32.548 26.583 32.548 26.583 33.605 27.625 C36.666 30.841 38.798 33.19 38.996 37.75 C37.859 44.778 33.539 48.692 28.677 53.524 C28 54.204 27.323 54.885 26.626 55.586 C24.394 57.826 22.154 60.06 19.915 62.293 C18.359 63.85 16.803 65.408 15.248 66.965 C11.99 70.226 8.729 73.483 5.466 76.737 C1.281 80.91 -2.894 85.092 -7.067 89.277 C-10.276 92.493 -13.49 95.705 -16.705 98.915 C-18.247 100.455 -19.787 101.997 -21.326 103.54 C-23.475 105.695 -25.631 107.843 -27.788 109.989 C-28.742 110.948 -28.742 110.948 -29.714 111.927 C-30.304 112.511 -30.894 113.096 -31.502 113.698 C-32.011 114.206 -32.52 114.714 -33.044 115.237 C-35.733 117.497 -38.016 118.484 -41.496 118.938 C-46.241 118.368 -49.019 116.004 -52.496 112.875 C-54.342 109.079 -54.533 105.683 -53.621 101.562 C-51.3 98.016 -48.342 95.258 -45.265 92.363 C-44.411 91.525 -43.558 90.686 -42.678 89.822 C-39.95 87.151 -37.193 84.513 -34.433 81.875 C-31.698 79.22 -28.969 76.559 -26.242 73.896 C-24.545 72.244 -22.842 70.597 -21.133 68.958 C-17.809 65.758 -14.57 62.616 -11.682 59.012 C-11.002 58.204 -10.321 57.395 -9.621 56.562 C-8.961 56.562 -8.301 56.562 -7.621 56.562 C-7.376 55.992 -7.131 55.421 -6.879 54.833 C-5.4 52.165 -3.659 50.375 -1.488 48.234 C-0.682 47.435 0.124 46.636 0.954 45.812 C1.795 44.987 2.637 44.163 3.504 43.312 C4.354 42.472 5.203 41.632 6.079 40.766 C8.174 38.693 10.275 36.626 12.379 34.562 C8.34 29.699 4.087 25.167 -0.433 20.75 C-7.526 13.813 -7.526 13.813 -7.871 9.25 C-7.456 3.139 -6.366 0.297 0 0 Z " fill="#6852FD" transform="translate(345.62060546875,553.4375)"/>
<path d="M0 0 C1.32 0.66 2.64 1.32 4 2 C4 2.66 4 3.32 4 4 C4.66 4 5.32 4 6 4 C6.495 5.98 6.495 5.98 7 8 C7.66 8 8.32 8 9 8 C10.687 9.983 12.354 11.983 14 14 C14.99 14.495 14.99 14.495 16 15 C16 15.99 16 16.98 16 18 C18.64 18 21.28 18 24 18 C20.183 22.559 16.239 26.907 12.026 31.103 C11.463 31.668 10.9 32.233 10.319 32.816 C8.481 34.658 6.639 36.497 4.797 38.336 C3.51 39.624 2.223 40.912 0.936 42.2 C-1.749 44.886 -4.435 47.57 -7.123 50.253 C-10.572 53.697 -14.017 57.145 -17.46 60.594 C-20.111 63.248 -22.764 65.9 -25.417 68.551 C-26.689 69.822 -27.96 71.094 -29.231 72.367 C-30.999 74.138 -32.771 75.906 -34.544 77.673 C-35.07 78.201 -35.595 78.729 -36.137 79.273 C-39.986 83.099 -41.846 84.172 -47.25 84.312 C-52.321 84.266 -55.133 83.48 -59 80 C-61.845 76.763 -62.848 74.109 -63.438 69.812 C-62.283 59.748 -51.106 51.867 -44.199 45.039 C-42.954 43.8 -41.71 42.561 -40.466 41.321 C-37.21 38.079 -33.949 34.843 -30.687 31.608 C-25.447 26.411 -20.214 21.207 -14.983 16 C-13.157 14.184 -11.328 12.372 -9.497 10.559 C-8.385 9.453 -7.272 8.347 -6.159 7.241 C-5.648 6.737 -5.138 6.233 -4.612 5.714 C-1.972 3.11 -1.972 3.11 0 0 Z " fill="#4B6BFE" transform="translate(355,434)"/>
<path d="M0 0 C4.62 0 9.24 0 14 0 C14.015 1.665 14.029 3.33 14.044 5.045 C14.102 11.229 14.179 17.413 14.262 23.596 C14.297 26.271 14.324 28.946 14.346 31.622 C14.38 35.469 14.432 39.317 14.488 43.164 C14.495 44.358 14.501 45.552 14.508 46.782 C14.596 54.829 14.596 54.829 18 62 C23.157 66.169 27.505 66.575 34.059 66.312 C38.184 65.874 41.473 65.221 45 63 C49.844 56.751 49.601 50.759 49.609 43.066 C49.626 41.833 49.642 40.6 49.659 39.33 C49.708 35.407 49.729 31.485 49.75 27.562 C49.776 24.896 49.808 22.23 49.84 19.564 C49.914 13.043 49.963 6.522 50 0 C54.62 0 59.24 0 64 0 C64.099 7.792 64.172 15.584 64.22 23.376 C64.24 26.024 64.267 28.672 64.302 31.32 C64.351 35.138 64.373 38.955 64.391 42.773 C64.411 43.947 64.432 45.12 64.453 46.329 C64.456 55.154 62.913 63.827 56.758 70.621 C46.905 78.35 36.076 80.051 24 79 C15.125 77.212 8.53 72.706 3.125 65.5 C-0.256 57.986 -0.266 51.22 -0.195 43.066 C-0.192 41.833 -0.19 40.6 -0.187 39.33 C-0.176 35.407 -0.15 31.485 -0.125 27.562 C-0.114 24.896 -0.106 22.23 -0.098 19.564 C-0.076 13.043 -0.041 6.521 0 0 Z " fill="#F5F7F8" transform="translate(621,467)"/>
<path d="M0 0 C4.702 4.075 7.849 9.548 9.812 15.438 C9.812 20.058 9.812 24.678 9.812 29.438 C-3.388 29.438 -16.587 29.438 -30.188 29.438 C-26.88 38.648 -26.88 38.648 -19.312 43.75 C-12.371 45.277 -7.774 44.153 -1.422 41.312 C0.812 40.438 0.812 40.438 3.812 40.438 C6 42.938 6 42.938 7.812 45.438 C6.574 49.292 4.222 50.735 0.711 52.555 C-7.175 56.222 -16.391 56.936 -24.848 54.75 C-32.555 51.577 -38.014 46.868 -41.461 39.27 C-43.364 34.47 -43.442 30.35 -43.5 25.25 C-43.529 24.424 -43.558 23.599 -43.588 22.748 C-43.668 14.915 -40.997 8.75 -35.812 2.82 C-24.706 -6.631 -12.379 -6.068 0 0 Z " fill="#F6F7F9" transform="translate(542.1875,490.5625)"/>
<path d="M0 0 C26.123 0 26.123 0 34.305 8.016 C40.435 15.191 40.76 22.93 40.379 32.023 C39.727 38.867 37.676 42.646 32.75 47.312 C23.038 54.949 11.962 54 0 54 C0 36.18 0 18.36 0 0 Z " fill="#111E35" transform="translate(436,479)"/>
<path d="M0 0 C5.853 2.979 8.986 7.232 11.512 13.318 C12.68 17.238 12.489 21.189 12.418 25.246 C12.414 26.168 12.409 27.091 12.405 28.041 C12.388 30.965 12.351 33.889 12.312 36.812 C12.297 38.804 12.284 40.796 12.271 42.787 C12.239 47.65 12.187 52.512 12.125 57.375 C7.835 57.375 3.545 57.375 -0.875 57.375 C-0.89 56.22 -0.904 55.065 -0.919 53.874 C-0.977 49.578 -1.055 45.283 -1.137 40.987 C-1.171 39.13 -1.199 37.272 -1.221 35.415 C-1.255 32.741 -1.307 30.068 -1.363 27.395 C-1.37 26.567 -1.376 25.74 -1.383 24.888 C-1.5 20.253 -1.863 17.126 -4.875 13.375 C-7.987 11.3 -8.971 11.033 -12.562 10.938 C-13.371 10.898 -14.179 10.858 -15.012 10.816 C-19.314 11.656 -22.696 13.323 -25.875 16.375 C-27.024 19.526 -26.949 22.505 -26.875 25.832 C-26.886 26.735 -26.897 27.638 -26.908 28.568 C-26.934 31.443 -26.905 34.313 -26.875 37.188 C-26.883 39.14 -26.895 41.092 -26.91 43.045 C-26.94 47.822 -26.921 52.598 -26.875 57.375 C-31.165 57.375 -35.455 57.375 -39.875 57.375 C-39.875 38.565 -39.875 19.755 -39.875 0.375 C-35.915 0.375 -31.955 0.375 -27.875 0.375 C-27.215 1.695 -26.555 3.015 -25.875 4.375 C-25.153 3.756 -24.431 3.137 -23.688 2.5 C-16.642 -2.823 -8.134 -3.264 0 0 Z " fill="#F7F9FA" transform="translate(737.875,487.625)"/>
<path d="M0 0 C4.116 1.778 6.766 4.11 9 8 C9.827 12.998 9.546 16.845 7.375 21.438 C3.991 25.089 1.018 26.649 -3.875 27.5 C-8.457 26.767 -12.693 24.307 -16 21 C-17.923 20.892 -19.85 20.854 -21.775 20.842 C-23.016 20.832 -24.257 20.822 -25.535 20.811 C-26.205 20.808 -26.874 20.804 -27.565 20.801 C-29.68 20.789 -31.796 20.769 -33.911 20.748 C-39.931 20.686 -45.951 20.633 -51.971 20.599 C-106.52 20.272 -106.52 20.272 -112.598 14.477 C-113.323 13.56 -113.323 13.56 -114.062 12.625 C-115.942 10.281 -117.839 8.09 -120 6 C-119.34 5.67 -118.68 5.34 -118 5 C-117.34 5.33 -116.68 5.66 -116 6 C-114.658 6.115 -113.31 6.171 -111.963 6.196 C-111.119 6.214 -110.275 6.233 -109.405 6.251 C-108.477 6.266 -107.549 6.282 -106.593 6.297 C-105.618 6.317 -104.642 6.336 -103.637 6.357 C-100.401 6.421 -97.165 6.478 -93.93 6.535 C-91.691 6.578 -89.451 6.622 -87.212 6.665 C-81.31 6.78 -75.408 6.888 -69.506 6.996 C-63.487 7.106 -57.468 7.222 -51.449 7.338 C-39.633 7.564 -27.816 7.784 -16 8 C-15.724 7.386 -15.448 6.773 -15.164 6.141 C-11.786 -0.072 -6.337 -0.704 0 0 Z " fill="#5C52F4" transform="translate(298,536)"/>
<path d="M0 0 C4.29 0 8.58 0 13 0 C13.419 1.176 13.838 2.352 14.269 3.564 C15.819 7.913 17.372 12.261 18.927 16.608 C19.6 18.492 20.272 20.377 20.943 22.262 C21.906 24.966 22.873 27.669 23.84 30.371 C24.141 31.219 24.442 32.067 24.752 32.941 C25.875 36.759 25.875 36.759 28 40 C28.389 38.859 28.777 37.719 29.177 36.543 C30.617 32.32 32.058 28.097 33.499 23.875 C34.123 22.045 34.747 20.216 35.37 18.386 C36.265 15.76 37.162 13.134 38.059 10.508 C38.338 9.687 38.617 8.866 38.905 8.02 C40.886 2.228 40.886 2.228 42 0 C46.29 0 50.58 0 55 0 C50.104 14.367 45.021 28.671 39.884 42.953 C39.173 44.934 38.465 46.916 37.76 48.9 C36.752 51.737 35.731 54.57 34.707 57.402 C34.408 58.251 34.109 59.099 33.801 59.973 C31.299 66.832 28.184 73.756 22.375 78.438 C21.805 78.911 21.235 79.384 20.648 79.871 C15.988 83.063 10.389 82.063 5 82 C5 78.37 5 74.74 5 71 C6.547 70.835 8.094 70.67 9.688 70.5 C13.717 69.682 15.806 68.84 18.188 65.438 C20.856 61.144 19.872 56.748 19 52 C18.028 48.729 16.792 45.593 15.508 42.434 C15.161 41.555 14.815 40.677 14.457 39.772 C13.357 36.99 12.241 34.214 11.125 31.438 C10.383 29.571 9.642 27.705 8.902 25.838 C7.856 23.199 6.809 20.561 5.754 17.927 C4.83 15.62 3.913 13.311 3 11 C2.703 10.254 2.406 9.509 2.1 8.741 C0.912 5.69 0 3.304 0 0 Z " fill="#F7F8FA" transform="translate(831,488)"/>
<path d="M0 0 C4.62 0 9.24 0 14 0 C15.998 5.659 17.992 11.319 19.981 16.98 C20.659 18.907 21.338 20.833 22.019 22.759 C22.994 25.523 23.966 28.289 24.938 31.055 C25.244 31.919 25.55 32.784 25.865 33.675 C26.146 34.475 26.426 35.276 26.715 36.101 C26.964 36.807 27.212 37.513 27.469 38.241 C28 40 28 40 28 42 C28.66 42 29.32 42 30 42 C30.08 41.464 30.16 40.929 30.242 40.377 C31.579 32.644 34.133 25.408 36.796 18.056 C37.571 15.913 38.336 13.766 39.1 11.619 C42.846 1.154 42.846 1.154 44 0 C46.02 -0.072 48.042 -0.084 50.062 -0.062 C51.72 -0.049 51.72 -0.049 53.41 -0.035 C54.265 -0.024 55.119 -0.012 56 0 C53.648 9.797 50.116 19.094 46.562 28.5 C45.983 30.043 45.404 31.586 44.826 33.129 C43.986 35.371 43.145 37.613 42.302 39.854 C40.16 45.555 38.067 51.272 36 57 C31.05 57 26.1 57 21 57 C15.389 42.268 9.799 27.529 4.312 12.75 C3.879 11.585 3.445 10.42 2.999 9.219 C2.406 7.618 2.406 7.618 1.801 5.984 C1.277 4.572 1.277 4.572 0.743 3.132 C0 1 0 1 0 0 Z " fill="#F5F7F9" transform="translate(556,488)"/>
<path d="M0 0 C5.752 0.114 8.905 1.196 13.098 5.191 C16.014 8.857 15.856 13.333 15.375 17.797 C13.597 21.913 11.265 24.562 7.375 26.797 C3.871 27.493 0.834 27.729 -2.625 26.797 C-3.683 25.821 -4.713 24.816 -5.725 23.792 C-9.93 20.112 -13.294 19.976 -18.723 20.141 C-19.586 20.143 -20.45 20.146 -21.34 20.149 C-24.124 20.167 -26.904 20.23 -29.688 20.297 C-31.598 20.323 -33.509 20.348 -35.42 20.372 C-45.16 20.52 -54.913 20.762 -64.625 21.547 C-65.427 21.608 -66.229 21.669 -67.055 21.732 C-73.02 22.357 -78.165 24.372 -83.625 26.797 C-83.625 23.797 -83.625 23.797 -82.016 22.078 C-81.309 21.49 -80.603 20.902 -79.875 20.297 C-79.179 19.709 -78.483 19.121 -77.766 18.516 C-76.706 17.665 -76.706 17.665 -75.625 16.797 C-74.971 16.262 -74.318 15.727 -73.645 15.176 C-62.087 7.285 -43.394 7.843 -29.973 7.727 C-28.777 7.707 -27.581 7.687 -26.35 7.666 C-23.944 7.629 -21.537 7.616 -19.131 7.629 C-12.45 7.507 -8.749 7.023 -4.037 2.157 C-2.625 0.797 -2.625 0.797 0 0 Z " fill="#3B77E6" transform="translate(266.625,448.203125)"/>
<path d="M0 0 C3.96 0 7.92 0 12 0 C12 4.95 12 9.9 12 15 C16.95 15 21.9 15 27 15 C27 17.97 27 20.94 27 24 C22.05 24 17.1 24 12 24 C12.097 28.627 12.2 33.253 12.317 37.879 C12.356 39.453 12.39 41.026 12.422 42.599 C12.468 44.863 12.526 47.127 12.586 49.391 C12.597 50.092 12.609 50.793 12.621 51.515 C12.73 55.127 12.91 57.982 15 61 C18.794 62.897 23.044 62.217 27 61 C28.158 64.473 28.069 67.361 28 71 C21.996 73.749 15.17 74.306 8.805 72.312 C4.162 69.901 1.142 66.23 -0.595 61.315 C-1.197 57.87 -1.122 54.439 -1.098 50.953 C-1.096 50.182 -1.095 49.411 -1.093 48.616 C-1.088 46.161 -1.075 43.705 -1.062 41.25 C-1.057 39.582 -1.053 37.914 -1.049 36.246 C-1.038 32.164 -1.021 28.082 -1 24 C-4.3 24 -7.6 24 -11 24 C-11.098 17.848 -11.098 17.848 -11 16 C-8.839 13.839 -3.799 14.276 -1 14 C-0.67 9.38 -0.34 4.76 0 0 Z " fill="#F7F8FA" transform="translate(796,473)"/>
<path d="M0 0 C4.29 0 8.58 0 13 0 C13 18.81 13 37.62 13 57 C8.71 57 4.42 57 0 57 C0 38.19 0 19.38 0 0 Z " fill="#F8F9FA" transform="translate(763,488)"/>
<path d="M0 0 C3.969 2.315 6.537 4.611 8 9 C8.345 14.352 8.488 17.67 5 22 C1.971 25.396 -0.442 26.336 -4.875 26.625 C-7.305 26.727 -7.305 26.727 -10 26 C-11.035 25.025 -12.045 24.023 -13.038 23.005 C-17.466 19.128 -21.389 19.138 -27.09 19.195 C-28.034 19.182 -28.979 19.168 -29.952 19.154 C-32.948 19.117 -35.942 19.12 -38.938 19.125 C-40.977 19.107 -43.017 19.086 -45.057 19.062 C-50.038 19.011 -55.018 18.996 -60 19 C-60 18.67 -60 18.34 -60 18 C-55.626 17.831 -51.252 17.67 -46.877 17.518 C-45.394 17.465 -43.91 17.41 -42.426 17.352 C-34.195 17.033 -26.193 16.909 -18 18 C-18.093 17.287 -18.186 16.574 -18.281 15.84 C-18.845 8.354 -18.845 8.354 -16.57 4.711 C-11.691 -0.051 -6.681 -1.757 0 0 Z " fill="#3B9BFC" transform="translate(274,449)"/>
<path d="M0 0 C2.973 2.627 4.3 4.674 5.688 8.375 C5.688 9.695 5.688 11.015 5.688 12.375 C-3.222 12.375 -12.133 12.375 -21.312 12.375 C-20.239 5.931 -18.682 2.931 -13.5 -1 C-8.409 -2.455 -4.666 -2.289 0 0 Z " fill="#111C33" transform="translate(533.3125,497.625)"/>
<path d="M0 0 C3.205 2.145 5.842 4.7 8.517 7.47 C10.234 9.242 11.986 10.976 13.742 12.711 C17.184 16.119 20.597 19.553 24 23 C23.34 23.66 22.68 24.32 22 25 C18.37 21.37 14.74 17.74 11 14 C10.01 14.495 10.01 14.495 9 15 C8.876 13.577 8.876 13.577 8.75 12.125 C8.502 11.094 8.255 10.062 8 9 C6.1 7.758 6.1 7.758 4 7 C3.34 6.01 2.68 5.02 2 4 C-1.559 1.94 -5.179 0.576 -9.266 1.527 C-13.509 3.484 -16.239 5.545 -18 10 C-18.719 13.695 -18.719 13.695 -19 17 C-18.01 17 -17.02 17 -16 17 C-16 18.65 -16 20.3 -16 22 C-15.34 22 -14.68 22 -14 22 C-14 22.66 -14 23.32 -14 24 C-13.072 24.021 -12.144 24.041 -11.188 24.062 C-10.136 24.372 -9.084 24.681 -8 25 C-7.326 26.585 -6.669 28.18 -6.121 29.812 C-3.62 34.693 1.03 38.298 5 42 C4.67 42.66 4.34 43.32 4 44 C0.751 40.826 -2.487 37.642 -5.717 34.448 C-6.816 33.364 -7.918 32.282 -9.022 31.204 C-10.613 29.65 -12.194 28.086 -13.773 26.52 C-14.266 26.042 -14.759 25.565 -15.267 25.073 C-18.946 21.395 -20.643 18.298 -21.438 13.188 C-20.657 7.502 -17.829 3.403 -13.312 -0.062 C-8.513 -1.421 -4.773 -1.584 0 0 Z " fill="#31D7F1" transform="translate(312,351)"/>
<path d="M0 0 C2.031 2.6 2.127 4.813 1.941 8.059 C1.562 10 1.562 10 0 12.5 C-3.361 14.569 -5.557 14.485 -9.438 14 C-11.875 13.062 -11.875 13.062 -13.438 11 C-13.997 7.9 -13.997 5.1 -13.438 2 C-10.146 -2.345 -4.722 -1.937 0 0 Z " fill="#F5F7F9" transform="translate(775.4375,465)"/>
<path d="M0 0 C1.812 1.125 1.812 1.125 3 3 C3.188 6.188 3.188 6.188 3 9 C2.34 9.33 1.68 9.66 1 10 C0.505 6.535 0.505 6.535 0 3 C-3.077 2.69 -4.537 2.663 -7.081 4.513 C-7.747 5.206 -8.414 5.899 -9.102 6.613 C-10.208 7.743 -10.208 7.743 -11.336 8.896 C-12.091 9.694 -12.847 10.491 -13.625 11.312 C-14.388 12.098 -15.151 12.884 -15.938 13.693 C-17.357 15.156 -18.771 16.624 -20.178 18.099 C-21.765 19.755 -23.377 21.38 -25 23 C-25.846 23.887 -26.691 24.774 -27.562 25.688 C-30 28 -30 28 -32 28 C-32.255 28.593 -32.51 29.186 -32.773 29.797 C-34.118 32.212 -35.492 33.512 -37.625 35.25 C-38.572 36.031 -38.572 36.031 -39.539 36.828 C-40.021 37.215 -40.503 37.602 -41 38 C-41.66 37.67 -42.32 37.34 -43 37 C-37.913 31.888 -32.822 26.78 -27.729 21.674 C-25.996 19.936 -24.263 18.196 -22.532 16.456 C-20.047 13.959 -17.559 11.466 -15.07 8.973 C-13.905 7.799 -13.905 7.799 -12.715 6.602 C-11.995 5.881 -11.274 5.161 -10.532 4.418 C-9.897 3.781 -9.262 3.144 -8.607 2.487 C-5.809 -0.102 -3.745 -0.365 0 0 Z " fill="#39A3F7" transform="translate(239,406)"/>
<path d="M0 0 C0 3 0 3 -1.119 4.459 C-1.643 4.967 -2.167 5.476 -2.706 5.999 C-3.593 6.871 -3.593 6.871 -4.497 7.76 C-5.144 8.382 -5.791 9.004 -6.457 9.645 C-7.116 10.292 -7.775 10.939 -8.453 11.606 C-11.277 14.381 -14.117 17.137 -16.956 19.895 C-19.025 21.909 -21.085 23.933 -23.145 25.957 C-23.785 26.573 -24.426 27.189 -25.086 27.823 C-29.674 32.335 -33.115 36.737 -33.688 43.375 C-33.791 44.571 -33.894 45.768 -34 47 C-34.66 46.67 -35.32 46.34 -36 46 C-36.563 39.247 -34.787 34.434 -30.493 29.143 C-28.748 27.272 -26.952 25.475 -25.117 23.691 C-24.462 23.039 -23.806 22.387 -23.131 21.715 C-21.755 20.35 -20.375 18.99 -18.991 17.634 C-16.865 15.553 -14.754 13.459 -12.645 11.361 C-11.303 10.033 -9.96 8.706 -8.617 7.379 C-7.984 6.753 -7.351 6.127 -6.698 5.482 C-6.11 4.907 -5.523 4.333 -4.917 3.74 C-4.401 3.234 -3.885 2.727 -3.353 2.205 C-2 1 -2 1 0 0 Z " fill="#3B86FE" transform="translate(173,468)"/>
<path d="M0 0 C2.938 0.812 2.938 0.812 4.938 3.812 C4.75 6.875 4.75 6.875 3.938 9.812 C0.938 11.812 0.938 11.812 -2.125 11.625 C-5.062 10.812 -5.062 10.812 -7.062 7.812 C-6.875 4.75 -6.875 4.75 -6.062 1.812 C-3.062 -0.188 -3.062 -0.188 0 0 Z " fill="#5A60F4" transform="translate(210.0625,500.1875)"/>
<path d="M0 0 C0.58 0.161 1.16 0.322 1.757 0.488 C5.334 1.304 8.96 1.22 12.613 1.281 C13.46 1.3 14.306 1.318 15.179 1.337 C17.89 1.396 20.601 1.448 23.312 1.5 C35.237 1.732 47.107 2.063 59 3 C59 3.33 59 3.66 59 4 C54.166 4.171 49.332 4.331 44.498 4.482 C42.861 4.535 41.225 4.59 39.588 4.648 C28.643 5.035 17.92 4.903 7 4 C7 4.66 7 5.32 7 6 C4.125 4.711 2.075 3.386 0 1 C0 0.67 0 0.34 0 0 Z " fill="#4653D2" transform="translate(178,541)"/>
<path d="M0 0 C1.812 1.125 1.812 1.125 3 3 C3.398 6.182 3.552 8.128 1.812 10.875 C-0.655 12.407 -2.145 12.428 -5 12 C-6.812 10.875 -6.812 10.875 -8 9 C-8.398 5.818 -8.552 3.872 -6.812 1.125 C-4.345 -0.407 -2.855 -0.428 0 0 Z " fill="#6058F7" transform="translate(240,500)"/>
<path d="M0 0 C0.33 0 0.66 0 1 0 C1.098 0.652 1.196 1.305 1.297 1.977 C1.446 2.851 1.596 3.725 1.75 4.625 C1.889 5.484 2.028 6.342 2.172 7.227 C4.324 14.435 10.06 19.325 15.266 24.461 C16.059 25.252 16.852 26.042 17.67 26.857 C20.192 29.367 22.721 31.871 25.25 34.375 C26.967 36.082 28.683 37.789 30.398 39.496 C34.594 43.669 38.795 47.837 43 52 C40 52 40 52 37.984 50.242 C37.247 49.461 36.51 48.68 35.75 47.875 C33.052 45.076 30.386 42.397 27.375 39.938 C24.304 37.368 21.808 34.532 19.23 31.477 C17.39 29.433 15.514 27.508 13.551 25.586 C12.928 24.976 12.304 24.365 11.662 23.736 C10.41 22.517 9.152 21.305 7.886 20.1 C3.777 16.094 0.389 12.391 -0.293 6.445 C-0.258 5.68 -0.223 4.914 -0.188 4.125 C-0.16 3.344 -0.133 2.563 -0.105 1.758 C-0.071 1.178 -0.036 0.598 0 0 Z " fill="#0F1A32" transform="translate(136,507)"/>
<path d="M0 0 C0.66 0.33 1.32 0.66 2 1 C1.319 1.681 0.639 2.361 -0.062 3.062 C-0.518 3.519 -0.973 3.975 -1.441 4.445 C-2.527 5.529 -3.619 6.606 -4.715 7.68 C-7.446 10.369 -10.016 13.02 -12.438 16 C-15.108 19.126 -17.964 21.678 -21.082 24.34 C-24.448 27.254 -27.493 30.468 -30.562 33.688 C-32.736 35.75 -34.338 36.767 -37 38 C-32.758 32.933 -28.323 28.188 -23.633 23.535 C-22.953 22.857 -22.274 22.179 -21.573 21.48 C-19.426 19.339 -17.276 17.2 -15.125 15.062 C-13.659 13.601 -12.192 12.14 -10.727 10.678 C-7.154 7.116 -3.578 3.557 0 0 Z " fill="#7153FE" transform="translate(332,615)"/>
<path d="M0 0 C1.32 0.66 2.64 1.32 4 2 C2.703 2.806 2.703 2.806 1.379 3.629 C-2.193 6.012 -5.086 8.861 -8.062 11.938 C-8.566 12.45 -9.069 12.962 -9.588 13.49 C-10.585 14.506 -11.581 15.523 -12.575 16.542 C-14.698 18.714 -16.849 20.856 -19 23 C-19.681 23.681 -20.361 24.361 -21.062 25.062 C-24.708 28.708 -28.354 32.354 -32 36 C-32 33 -32 33 -30.83 31.476 C-30.282 30.938 -29.734 30.4 -29.17 29.845 C-28.553 29.231 -27.935 28.618 -27.299 27.985 C-26.624 27.329 -25.949 26.672 -25.254 25.996 C-24.568 25.317 -23.882 24.638 -23.176 23.938 C-20.978 21.764 -18.771 19.6 -16.562 17.438 C-14.359 15.269 -12.158 13.099 -9.96 10.926 C-8.59 9.573 -7.216 8.223 -5.84 6.876 C-4.909 5.96 -4.909 5.96 -3.959 5.025 C-3.411 4.488 -2.862 3.951 -2.297 3.397 C-0.889 2.011 -0.889 2.011 0 0 Z " fill="#4C7BFC" transform="translate(355,434)"/>
<path d="M0 0 C3.297 0.33 4.623 0.623 7 3 C6.625 6.125 6.625 6.125 6 9 C0.566 10.328 0.566 10.328 -1.938 8.875 C-3 7 -3 7 -2.812 4.438 C-2 2 -2 2 0 0 Z " fill="#3EB6EE" transform="translate(300,450)"/>
<path d="M0 0 C5.502 4.625 10.776 9.435 15.938 14.438 C16.717 15.163 17.496 15.888 18.299 16.635 C23.847 22.046 23.847 22.046 24.629 26.91 C24 30 24 30 22 32 C18.375 32.125 18.375 32.125 15 32 C15 31.67 15 31.34 15 31 C16.98 30.34 18.96 29.68 21 29 C21.33 27.35 21.66 25.7 22 24 C21.154 23.34 20.309 22.68 19.438 22 C16.194 19.305 13.537 16.267 10.805 13.066 C5.992 7.312 5.992 7.312 0 3 C0 2.01 0 1.02 0 0 Z " fill="#5E5BF8" transform="translate(216,580)"/>
<path d="M0 0 C3.668 1.539 5.986 3.755 8.766 6.57 C9.655 7.466 10.545 8.362 11.461 9.285 C12.381 10.222 13.302 11.159 14.25 12.125 C15.195 13.08 16.14 14.034 17.086 14.988 C19.395 17.321 21.7 19.658 24 22 C23.34 22.66 22.68 23.32 22 24 C18.861 20.91 15.728 17.813 12.601 14.71 C11.535 13.655 10.468 12.602 9.399 11.55 C7.866 10.041 6.339 8.525 4.812 7.008 C3.891 6.097 2.969 5.185 2.02 4.247 C0 2 0 2 0 0 Z " fill="#142441" transform="translate(354,392)"/>
<path d="M0 0 C6.928 5.666 13.142 12.03 19.438 18.375 C20.562 19.504 21.686 20.633 22.811 21.762 C25.543 24.505 28.272 27.252 31 30 C30.34 30.66 29.68 31.32 29 32 C28.415 31.343 27.83 30.685 27.227 30.008 C20.355 22.393 13.19 15.129 5.844 7.969 C5.087 7.224 4.331 6.479 3.551 5.711 C2.525 4.71 2.525 4.71 1.478 3.689 C0 2 0 2 0 0 Z " fill="#10162B" transform="translate(294,373)"/>
<path d="M0 0 C0 3 0 3 -1.434 4.682 C-2.426 5.588 -2.426 5.588 -3.438 6.512 C-4.168 7.188 -4.899 7.864 -5.652 8.561 C-6.427 9.262 -7.202 9.964 -8 10.688 C-9.501 12.065 -11.001 13.444 -12.5 14.824 C-13.612 15.846 -13.612 15.846 -14.746 16.888 C-18.251 20.172 -21.633 23.576 -25 27 C-25 23.4 -23.992 22.642 -21.545 20.179 C-21.048 19.695 -20.551 19.21 -20.039 18.711 C-19.533 18.207 -19.028 17.703 -18.506 17.184 C-17.436 16.12 -16.361 15.059 -15.283 14.002 C-13.632 12.381 -11.991 10.75 -10.352 9.117 C-9.311 8.085 -8.269 7.054 -7.227 6.023 C-6.734 5.535 -6.241 5.046 -5.733 4.543 C-2.234 1.117 -2.234 1.117 0 0 Z " fill="#3D8EFE" transform="translate(173,468)"/>
<path d="M0 0 C2.935 0.367 3.864 0.864 6 3 C5.444 7.556 5.444 7.556 4 9 C1.5 9.125 1.5 9.125 -1 9 C-2 8 -2 8 -2.188 5.062 C-2 2 -2 2 0 0 Z " fill="#3A44AE" transform="translate(174,608)"/>
<path d="M0 0 C3.259 1.426 5.402 3.167 7.891 5.695 C8.954 6.768 8.954 6.768 10.039 7.863 C11.133 8.983 11.133 8.983 12.25 10.125 C12.995 10.879 13.74 11.633 14.508 12.41 C16.343 14.269 18.174 16.132 20 18 C19.34 18.66 18.68 19.32 18 20 C7.453 9.453 7.453 9.453 5.643 7.635 C4.296 6.295 2.925 4.98 1.547 3.672 C0 2 0 2 0 0 Z " fill="#162247" transform="translate(197,579)"/>
<path d="M0 0 C2.935 0.367 3.864 0.864 6 3 C5.625 5.625 5.625 5.625 5 8 C2.625 8.625 2.625 8.625 0 9 C-2 7 -2 7 -2.25 4.5 C-2 2 -2 2 0 0 Z " fill="#3D2DD1" transform="translate(278,615)"/>
<path d="M0 0 C0 3.196 -0.338 4.341 -2 7 C-5.429 10 -5.429 10 -8 10 C-8.255 10.593 -8.51 11.186 -8.773 11.797 C-10.118 14.212 -11.492 15.512 -13.625 17.25 C-14.257 17.771 -14.888 18.292 -15.539 18.828 C-16.021 19.215 -16.503 19.602 -17 20 C-17.66 19.67 -18.32 19.34 -19 19 C-12.73 12.73 -6.46 6.46 0 0 Z " fill="#328BE6" transform="translate(215,424)"/>
<path d="M0 0 C3.043 1.358 5.123 2.885 7.453 5.258 C8.072 5.883 8.691 6.508 9.328 7.152 C9.962 7.803 10.597 8.454 11.25 9.125 C11.9 9.784 12.549 10.442 13.219 11.121 C14.817 12.743 16.411 14.369 18 16 C17.34 16.66 16.68 17.32 16 18 C12.37 14.37 8.74 10.74 5 7 C4.01 7.495 4.01 7.495 3 8 C2.67 6.02 2.34 4.04 2 2 C1.34 2 0.68 2 0 2 C0 1.34 0 0.68 0 0 Z " fill="#30C7EA" transform="translate(318,358)"/>
<path d="M0 0 C2.812 0.062 2.812 0.062 6 1 C6.674 2.585 7.331 4.18 7.879 5.812 C10.38 10.693 15.03 14.298 19 18 C18.67 18.66 18.34 19.32 18 20 C14.992 17.05 11.995 14.089 9 11.125 C8.141 10.283 7.283 9.441 6.398 8.574 C5.586 7.769 4.774 6.963 3.938 6.133 C2.806 5.017 2.806 5.017 1.652 3.879 C0 2 0 2 0 0 Z " fill="#34D2FB" transform="translate(298,375)"/>
<path d="M0 0 C2.5 0.125 2.5 0.125 3.5 1.125 C3.625 3.625 3.625 3.625 3.5 6.125 C2.5 7.125 2.5 7.125 0.062 7.312 C-2.5 7.125 -2.5 7.125 -4.5 5.125 C-3.752 0.188 -3.752 0.188 0 0 Z " fill="#3B88F0" transform="translate(144.5,425.875)"/>
<path d="M0 0 C3.873 1.576 6.247 4.077 9.125 7.062 C12.241 10.465 12.241 10.465 16 13 C15.67 13.99 15.34 14.98 15 16 C9.757 11.631 4.481 7.167 0 2 C0 1.34 0 0.68 0 0 Z " fill="#36A0E0" transform="translate(328,406)"/>
<path d="M0 0 C1.675 0.286 3.344 0.618 5 1 C5.625 3.375 5.625 3.375 6 6 C5.34 6.66 4.68 7.32 4 8 C0.464 7.464 0.464 7.464 -1 6 C-1.125 3.5 -1.125 3.5 -1 1 C-0.67 0.67 -0.34 0.34 0 0 Z " fill="#3889DC" transform="translate(218,354)"/>
<path d="M0 0 C2.625 0.375 2.625 0.375 5 1 C5.625 2.875 5.625 2.875 6 5 C5.34 5.66 4.68 6.32 4 7 C1.375 6.625 1.375 6.625 -1 6 C-1.625 4.125 -1.625 4.125 -2 2 C-1.34 1.34 -0.68 0.68 0 0 Z " fill="#3B78C7" transform="translate(265,405)"/>
<path d="M0 0 C0.66 0.33 1.32 0.66 2 1 C1.319 1.681 0.639 2.361 -0.062 3.062 C-0.518 3.519 -0.973 3.975 -1.441 4.445 C-2.527 5.529 -3.619 6.606 -4.715 7.68 C-8.384 11.293 -11.771 14.988 -15 19 C-15.66 18.67 -16.32 18.34 -17 18 C-11.515 11.804 -5.924 5.779 0 0 Z " fill="#7055FE" transform="translate(332,615)"/>
<path d="M0 0 C0.33 0.66 0.66 1.32 1 2 C-0.842 6.518 -3.248 10.076 -7.812 12 C-8.864 12.33 -9.916 12.66 -11 13 C-11 10 -11 10 -9.355 8.281 C-8.64 7.693 -7.925 7.106 -7.188 6.5 C-4.68 4.417 -2.266 2.345 0 0 Z " fill="#3769CF" transform="translate(194,462)"/>
<path d="M0 0 C1.618 1.334 3.2 2.712 4.75 4.125 C5.949 5.212 5.949 5.212 7.172 6.32 C7.775 6.875 8.378 7.429 9 8 C8.34 8.66 7.68 9.32 7 10 C6.443 9.362 5.886 8.724 5.312 8.066 C0.325 2.36 0.325 2.36 -6.562 -0.062 C-8.264 -0.032 -8.264 -0.032 -10 0 C-10 -0.33 -10 -0.66 -10 -1 C-5.787 -1.958 -3.69 -2.258 0 0 Z " fill="#18234B" transform="translate(353,554)"/>
<path d="M0 0 C0.66 0.66 1.32 1.32 2 2 C1.01 2.33 0.02 2.66 -1 3 C-1.433 3.897 -1.433 3.897 -1.875 4.812 C-3.366 7.712 -5.421 9.035 -8 11 C-9.351 12.315 -10.691 13.643 -12 15 C-12.66 14.67 -13.32 14.34 -14 14 C-9.38 9.38 -4.76 4.76 0 0 Z " fill="#4975F8" transform="translate(321,469)"/>
<path d="M0 0 C0.66 0.33 1.32 0.66 2 1 C1.67 3.31 1.34 5.62 1 8 C1.99 8 2.98 8 4 8 C4 9.65 4 11.3 4 13 C4.66 13 5.32 13 6 13 C5.67 13.99 5.34 14.98 5 16 C0.725 11.725 -0.59 8.88 -1.055 2.855 C-1 1 -1 1 0 0 Z " fill="#2FCBEB" transform="translate(292,360)"/>
<path d="M0 0 C0.33 0.66 0.66 1.32 1 2 C0.578 2.496 0.157 2.993 -0.277 3.504 C-3.96 8.07 -5.755 11.11 -6 17 C-6.66 17 -7.32 17 -8 17 C-8.617 12.062 -8.153 9.708 -5.125 5.688 C-3.49 3.678 -1.833 1.833 0 0 Z " fill="#4668E9" transform="translate(300,490)"/>
<path d="M0 0 C0.33 0.66 0.66 1.32 1 2 C-1.016 6.506 -3.831 8.499 -8 11 C-8.66 10.67 -9.32 10.34 -10 10 C-6.7 6.7 -3.4 3.4 0 0 Z " fill="#347FE3" transform="translate(188,451)"/>
<path d="M0 0 C1.32 0.66 2.64 1.32 4 2 C3.67 3.65 3.34 5.3 3 7 C1.02 7 -0.96 7 -3 7 C-3.33 6.34 -3.66 5.68 -4 5 C-3.01 5 -2.02 5 -1 5 C-0.67 3.35 -0.34 1.7 0 0 Z " fill="#41BEFA" transform="translate(303,451)"/>
<path d="M0 0 C0.66 0.33 1.32 0.66 2 1 C-2.62 5.62 -7.24 10.24 -12 15 C-12 11.894 -11.461 10.647 -10 8 C-9.34 8 -8.68 8 -8 8 C-6.576 6.719 -5.208 5.376 -3.875 4 C-3.151 3.257 -2.426 2.515 -1.68 1.75 C-0.848 0.884 -0.848 0.884 0 0 Z " fill="#3AA2FE" transform="translate(237,417)"/>
<path d="M0 0 C3.452 1.477 5.65 3.438 8.25 6.125 C8.956 6.849 9.663 7.574 10.391 8.32 C11.187 9.152 11.187 9.152 12 10 C11.34 10.66 10.68 11.32 10 12 C8.327 10.381 6.662 8.755 5 7.125 C4.072 6.22 3.144 5.315 2.188 4.383 C0 2 0 2 0 0 Z " fill="#162944" transform="translate(354,392)"/>
<path d="M0 0 C0.66 0 1.32 0 2 0 C0.464 3.681 -1.782 5.988 -4.625 8.75 C-5.851 9.949 -5.851 9.949 -7.102 11.172 C-7.728 11.775 -8.355 12.378 -9 13 C-9.33 12.01 -9.66 11.02 -10 10 C-9.34 10 -8.68 10 -8 10 C-8 9.34 -8 8.68 -8 8 C-7.34 8 -6.68 8 -6 8 C-5.752 7.381 -5.505 6.762 -5.25 6.125 C-3.794 3.649 -2.622 3.049 0 2 C0 1.34 0 0.68 0 0 Z " fill="#377BE6" transform="translate(168,486)"/>
<path d="M0 0 C4.29 0.99 8.58 1.98 13 3 C13 3.33 13 3.66 13 4 C11.02 4 9.04 4 7 4 C7 4.66 7 5.32 7 6 C4.125 4.711 2.075 3.386 0 1 C0 0.67 0 0.34 0 0 Z " fill="#415ED4" transform="translate(178,541)"/>
<path d="M0 0 C3.21 1.382 5.049 2.924 7.25 5.625 C8.031 6.572 8.031 6.572 8.828 7.539 C9.408 8.262 9.408 8.262 10 9 C6.005 9 4.858 7.711 2 5 C0.688 2.25 0.688 2.25 0 0 Z " fill="#152245" transform="translate(197,579)"/>
<path d="M0 0 C0.66 0 1.32 0 2 0 C2 0.66 2 1.32 2 2 C2.66 2 3.32 2 4 2 C7.373 5.027 9.839 8.02 12 12 C8.601 10.53 6.35 8.62 3.75 6 C3.044 5.299 2.337 4.597 1.609 3.875 C0 2 0 2 0 0 Z " fill="#437FFC" transform="translate(145,524)"/>
<path d="M0 0 C1.32 0.66 2.64 1.32 4 2 C3.154 2.516 2.309 3.031 1.438 3.562 C-2.542 6.194 -5.729 9.554 -9 13 C-9 10 -9 10 -7.285 8.027 C-6.552 7.338 -5.818 6.648 -5.062 5.938 C-2.136 3.263 -2.136 3.263 0 0 Z " fill="#4B83FD" transform="translate(355,434)"/>
<path d="M0 0 C5.408 3.166 9.042 7.175 13 12 C10 12 10 12 7.52 9.883 C6.626 8.973 5.733 8.063 4.812 7.125 C3.911 6.22 3.01 5.315 2.082 4.383 C0 2 0 2 0 0 Z " fill="#4974FD" transform="translate(162,541)"/>
<path d="M0 0 C1.29 3.871 0.654 5.315 -1 9 C-3.625 11.375 -3.625 11.375 -6 13 C-5.342 9.703 -4.106 7.159 -2.438 4.25 C-1.982 3.451 -1.527 2.652 -1.059 1.828 C-0.535 0.923 -0.535 0.923 0 0 Z " fill="#0B1328" transform="translate(488,520)"/>
<path d="M0 0 C4.274 1.583 6.265 4.506 9 8 C4.663 8 3.056 5.92 0 3 C0 2.01 0 1.02 0 0 Z " fill="#132044" transform="translate(182,564)"/>
<path d="M0 0 C-4.077 2.718 -8.145 5.066 -13 6 C-8.337 1.215 -6.686 -0.145 0 0 Z " fill="#080E20" transform="translate(528,496)"/>
<path d="M0 0 C0.99 0.33 1.98 0.66 3 1 C-0.96 4.465 -0.96 4.465 -5 8 C-5.66 7.67 -6.32 7.34 -7 7 C-4.69 4.69 -2.38 2.38 0 0 Z " fill="#3386E5" transform="translate(203,436)"/>
<path d="M0 0 C2.997 0.999 4.027 1.651 6 4 C6 4.66 6 5.32 6 6 C6.66 6 7.32 6 8 6 C8.66 7.32 9.32 8.64 10 10 C5.864 8.409 2.768 5.395 0 2 C0 1.34 0 0.68 0 0 Z " fill="#6F5AFD" transform="translate(340,567)"/>
<path d="M0 0 C4.274 1.583 6.265 4.506 9 8 C4.752 7.528 2.732 5.111 0 2 C0 1.34 0 0.68 0 0 Z " fill="#32AAE0" transform="translate(344,384)"/>
<path d="M0 0 C0.99 0.33 1.98 0.66 3 1 C0.667 3.333 -1.667 5.667 -4 8 C-4.99 7.67 -5.98 7.34 -7 7 C-4.69 4.69 -2.38 2.38 0 0 Z " fill="#0F1621" transform="translate(181,476)"/>
<path d="M0 0 C1.98 0.495 1.98 0.495 4 1 C3.67 2.32 3.34 3.64 3 5 C1.68 5 0.36 5 -1 5 C-0.67 3.35 -0.34 1.7 0 0 Z " fill="#397EE1" transform="translate(143,427)"/>
<path d="M0 0 C2.954 1.372 5.44 2.989 8 5 C7.67 5.99 7.34 6.98 7 8 C5.827 7.049 4.662 6.089 3.5 5.125 C2.85 4.591 2.201 4.058 1.531 3.508 C1.026 3.01 0.521 2.513 0 2 C0 1.34 0 0.68 0 0 Z " fill="#389FE7" transform="translate(336,414)"/>
<path d="M0 0 C0.66 0.33 1.32 0.66 2 1 C1.67 3.97 1.34 6.94 1 10 C0.34 9.67 -0.32 9.34 -1 9 C-1.125 2.25 -1.125 2.25 0 0 Z " fill="#3B7CEA" transform="translate(138,505)"/>
<path d="M0 0 C0.33 0.99 0.66 1.98 1 3 C-1.31 4.98 -3.62 6.96 -6 9 C-4.866 4.465 -3.358 3.1 0 0 Z " fill="#3494EE" transform="translate(222,417)"/>
<path d="M0 0 C3.795 1.491 5.61 3.757 8 7 C5 7 5 7 2.312 4.625 C0 2 0 2 0 0 Z " fill="#33B3E3" transform="translate(336,376)"/>
<path d="M0 0 C3.795 1.491 5.61 3.757 8 7 C5 7 5 7 2.312 4.625 C0 2 0 2 0 0 Z " fill="#31BCE2" transform="translate(328,368)"/>
<path d="M0 0 C1.258 -0.041 2.516 -0.082 3.812 -0.125 C4.52 -0.148 5.228 -0.171 5.957 -0.195 C8 0 8 0 11 2 C10 3 10 3 7.188 3.25 C3.723 2.978 2.506 2.313 0 0 Z " fill="#614DE5" transform="translate(287,560)"/>
<path d="M0 0 C0.33 1.32 0.66 2.64 1 4 C-0.65 5.32 -2.3 6.64 -4 8 C-4.66 7.67 -5.32 7.34 -6 7 C-4.02 4.69 -2.04 2.38 0 0 Z " fill="#0B132A" transform="translate(681,532)"/>
<path d="M0 0 C0.66 0 1.32 0 2 0 C1.542 3.469 1.109 6.674 0 10 C-2 7 -2 7 -1.688 3.875 C-1 1 -1 1 0 0 Z " fill="#5659E4" transform="translate(205,501)"/>
<path d="M0 0 C4.419 1.35 6.343 3.261 9 7 C8.01 7 7.02 7 6 7 C5.34 6.01 4.68 5.02 4 4 C1.95 2.808 1.95 2.808 0 2 C0 1.34 0 0.68 0 0 Z " fill="#31D2ED" transform="translate(310,351)"/>
<path d="M0 0 C0.66 0.66 1.32 1.32 2 2 C0.35 3.98 -1.3 5.96 -3 8 C-3.66 7.67 -4.32 7.34 -5 7 C-1.125 1.125 -1.125 1.125 0 0 Z " fill="#3C84F6" transform="translate(143,497)"/>
<path d="M0 0 C3.367 1.393 4.986 2.979 7 6 C4 6 4 6 1.812 4.125 C0 2 0 2 0 0 Z " fill="#131F40" transform="translate(371,573)"/>
<path d="M0 0 C-0.33 0.99 -0.66 1.98 -1 3 C-2.98 3.33 -4.96 3.66 -7 4 C-7 3.34 -7 2.68 -7 2 C-4.353 0.539 -3.106 0 0 0 Z " fill="#3668C9" transform="translate(203,460)"/>
<path d="M0 0 C0.66 0.33 1.32 0.66 2 1 C1.312 2.938 1.312 2.938 0 5 C-2.625 5.75 -2.625 5.75 -5 6 C-3.35 4.02 -1.7 2.04 0 0 Z " fill="#132545" transform="translate(206,450)"/>
<path d="M0 0 C0.33 0.66 0.66 1.32 1 2 C0.34 1.67 -0.32 1.34 -1 1 C-0.67 0.67 -0.34 0.34 0 0 Z M-4 2 C-3.34 2.66 -2.68 3.32 -2 4 C-2.99 4 -3.98 4 -5 4 C-4.67 3.34 -4.34 2.68 -4 2 Z " fill="#12203B" transform="translate(380,453)"/>
<path d="M0 0 C1.32 0.66 2.64 1.32 4 2 C4 2.99 4 3.98 4 5 C2.68 5 1.36 5 0 5 C-0.562 3.062 -0.562 3.062 -1 1 C-0.67 0.67 -0.34 0.34 0 0 Z " fill="#3972BB" transform="translate(265,405)"/>
</svg>